<svg version="1.1" viewBox="0 0 400 600" xmlns="http://www.w3.org/2000/svg">
 <g transform="translate(-379,-135)">
  <rect x="379" y="135" width="400" height="600" fill="#333" stroke-width="3.1"/>
  <g transform="translate(-217.15 26.622)">
   <path d="m709.38 329.33c-5.1887 0-9.3652 4.1765-9.3652 9.3652v118.29c0 5.1887 4.1765 9.3672 9.3652 9.3672h62.787c7.4614 0 20.119 10.848 20.119 21.854v-137.02c0-11.006-12.658-21.854-20.119-21.854z" fill="#e6e6e6" stroke-width="3.1"/>
   <path d="m721.52 328.55h27.435c0.57752 0 1.0425 0.46493 1.0425 1.0425v47.52c0 0.57752-0.46494 1.0425-1.0425 1.0425l-13.822-12.141-13.613 12.141c-0.43101 0.38439-1.0425-0.46494-1.0425-1.0425v-47.52c0-0.57753 0.46494-1.0425 1.0425-1.0425z" fill="#4d4d4d" stroke-width="4.6554"/>
   <path d="m882.92 329.33c5.1887 0 9.3652 4.1765 9.3652 9.3652v118.29c0 5.1887-4.1765 9.3672-9.3652 9.3672h-62.787c-7.4614 0-20.119 10.848-20.119 21.854v-137.02c0-11.006 12.658-21.854 20.119-21.854z" fill="#4d4d4d" stroke-width="3.1"/>
  </g>
 </g>
</svg>
